<mxfile host="app.diagrams.net" modified="2023-04-18T21:51:45.556Z" agent="Mozilla/5.0 (Windows NT 10.0; Win64; x64) AppleWebKit/537.36 (KHTML, like Gecko) Chrome/112.0.0.0 Safari/537.36" version="21.1.8" etag="xODgUImaRaNiMwrn4d6E" type="github">
  <diagram name="Страница 1" id="-Ec0tM0pxWcLuyT8i6mH">
    <mxGraphModel>
      <root>
        <mxCell id="0" />
        <mxCell id="1" parent="0" />
      </root>
    </mxGraphModel>
  </diagram>
</mxfile>
